<svg width="135" height="33" viewBox="0 0 135 33" fill="none" xmlns="http://www.w3.org/2000/svg">
<path d="M0 16.5V33H33.659H67.3181V16.5V-4.91738e-07H33.659H0V16.5ZM22.7062 12.05C23.6887 13.15 23.9434 14.9 23.2156 15.9C22.8881 16.35 22.8881 16.65 23.2156 17.1C23.6887 17.75 23.7978 19.95 23.3612 20.8C22.779 22.05 21.3598 22.5 18.2305 22.5H14.9191V16.75V11H18.3396C21.2143 11 21.8693 11.15 22.7062 12.05ZM28.0189 15.75V20.5H31.4757C34.6779 20.5 34.9326 20.55 34.9326 21.5C34.9326 22.45 34.6779 22.5 30.748 22.5H26.5633V16.75C26.5633 11.35 26.5997 11 27.2911 11C27.9825 11 28.0189 11.35 28.0189 15.75ZM46.5404 12.7C47.5229 14 47.6685 14.55 47.6685 16.75C47.6685 20.95 46.1402 22.5 41.9191 22.5C40.1361 22.5 39.1536 22.25 38.3167 21.5C35.8423 19.45 35.9879 13.85 38.5714 11.9C39.5903 11.15 40.4272 11 42.6469 11.1C45.1577 11.25 45.5579 11.4 46.5404 12.7ZM58.9488 11.75C59.8949 12.4 60.7682 13.85 60.7682 14.7C60.7682 15.4 59.1671 14.9 58.7305 14.1C58.3666 13.45 57.7116 13.25 55.5283 13.25C52.4717 13.25 51.8531 13.75 51.4528 16.35C51.2709 17.65 51.4164 18.2 52.1442 19.2C52.9811 20.35 53.4178 20.5 55.4919 20.5C57.4569 20.5 58.0027 20.3 58.6941 19.35L59.4946 18.25L57.7844 18.1C56.5472 18 56.0377 17.75 56.0377 17.2C56.0377 16.65 56.6199 16.5 58.5849 16.5H61.1321V19.5C61.1321 22.15 61.0593 22.5 60.4043 22.5C60.004 22.5 59.6765 22.15 59.6765 21.75C59.6765 21.05 59.5674 21.1 58.7668 21.8C58.0755 22.4 57.2022 22.55 54.9461 22.4C52.3989 22.25 51.9259 22.1 51.0889 20.95C49.1604 18.25 49.7062 13.2 52.1442 11.75C53.7089 10.8 57.6388 10.8 58.9488 11.75Z" fill="white"/>
<path d="M16.3746 14.25C16.3746 15.45 16.4474 15.5 19.1037 15.5C21.287 15.5 21.9056 15.35 22.0876 14.7C22.4151 13.5 21.5417 13 18.849 13C16.4474 13 16.3746 13.05 16.3746 14.25Z" fill="white"/>
<path d="M16.3746 19V20.55L18.9582 20.4C20.9959 20.3 21.6509 20.05 21.9784 19.35C22.5606 18.05 21.6873 17.5 18.849 17.5H16.3746V19Z" fill="white"/>
<path d="M39.4811 13.6C38.4258 14.4 38.2075 15 38.2075 17.1C38.2075 19.7 39.19 20.5 42.2102 20.5C45.2668 20.5 46.2129 19.7 46.2129 17C46.2129 14.25 44.9757 13 42.2466 13C41.1186 13 39.8814 13.3 39.4811 13.6Z" fill="white"/>
<path d="M86.0944 11.2C84.1294 12.2 83.2925 13.5 83.0741 15.9C82.6375 20.45 84.7116 23 88.7871 23C92.4987 23 94.5 21.2 94.8639 17.6C95.1186 15.15 94.2817 12.8 92.7898 11.75C91.1887 10.6 87.8046 10.35 86.0944 11.2ZM92.244 13.7C93.4084 14.75 93.8086 17.6 93.0081 19.25C91.9165 21.5 86.3855 21.7 85.0755 19.5C83.8019 17.35 84.4205 14.4 86.3491 13.2C87.7682 12.3 91.0068 12.6 92.244 13.7Z" fill="white"/>
<path d="M114.441 10.95C112.039 11.75 110.62 14 110.62 17.05C110.62 19 111.748 21.4 113.058 22.25C114.841 23.45 119.317 23.15 120.408 21.8C121.172 20.85 121.172 20.85 121.172 21.9C121.172 22.65 121.391 23 121.9 23C122.555 23 122.628 22.65 122.628 19.75V16.5H119.899C117.716 16.5 117.17 16.65 117.17 17.25C117.17 17.8 117.606 18 118.771 18C120.772 18 121.1 18.6 119.863 19.95C119.098 20.8 118.371 21 116.478 21C113.713 21 112.621 20.25 112.257 18.1C111.748 14.9 113.604 12.5 116.624 12.5C118.116 12.5 120.445 13.7 120.445 14.45C120.445 14.75 120.845 15 121.354 15C122.482 15 122.519 14.3 121.391 12.75C119.972 10.8 117.097 10.1 114.441 10.95Z" fill="white"/>
<path d="M72.4124 17C72.4124 22.65 72.4487 23 73.1401 23C73.7587 23 73.8679 22.65 73.8679 20.5V18H77.3248C80.163 18 80.7816 17.85 80.7816 17.25C80.7816 16.65 80.163 16.5 77.3248 16.5H73.8679V14.5V12.5H77.6886C80.8544 12.5 81.5094 12.35 81.5094 11.75C81.5094 11.1 80.7452 11 76.9609 11H72.4124V17Z" fill="white"/>
<path d="M97.8841 17V23H98.7938C99.6307 23 99.7035 22.8 99.7035 20.75V18.45L103.088 18.6L106.435 18.75L106.544 20.85C106.654 22.75 106.763 23 107.527 23C108.291 23 108.364 22.85 108.182 20.85C108.073 19.7 107.818 18.5 107.636 18.15C107.381 17.75 107.491 17.15 107.854 16.4C108.655 14.85 108.582 13.2 107.709 12C107.054 11.1 106.508 11 102.433 11H97.8841V17ZM106.799 13.5C106.908 13.8 106.908 14.45 106.799 15C106.581 15.9 106.253 16 103.124 16H99.7035V14.5V13H103.124C105.053 13 106.69 13.2 106.799 13.5Z" fill="white"/>
<path d="M125.539 17V23H130.306C134.636 23 135.036 22.9 134.927 22.1C134.818 21.35 134.272 21.25 130.888 21.1L126.995 20.95V19.5V18H130.451C133.654 18 133.908 17.95 133.908 17C133.908 16.05 133.654 16 130.451 16H126.995V14.25V12.5H130.997C134.309 12.5 135 12.35 135 11.75C135 11.1 134.236 11 130.27 11H125.539V17Z" fill="white"/>
</svg>
